<svg xmlns="http://www.w3.org/2000/svg" width="49" height="49" viewBox="0 0 49 49">
  <metadata><?xpacket begin="﻿" id="W5M0MpCehiHzreSzNTczkc9d"?>
<x:xmpmeta xmlns:x="adobe:ns:meta/" x:xmptk="Adobe XMP Core 5.6-c138 79.159824, 2016/09/14-01:09:01        ">
   <rdf:RDF xmlns:rdf="http://www.w3.org/1999/02/22-rdf-syntax-ns#">
      <rdf:Description rdf:about=""/>
   </rdf:RDF>
</x:xmpmeta>
                                                                                                    
                                                                                                    
                                                                                                    
                                                                                                    
                                                                                                    
                                                                                                    
                                                                                                    
                                                                                                    
                                                                                                    
                                                                                                    
                                                                                                    
                                                                                                    
                                                                                                    
                                                                                                    
                                                                                                    
                                                                                                    
                                                                                                    
                                                                                                    
                                                                                                    
                                                                                                    
                           
<?xpacket end="w"?></metadata>
<defs>
    <style>
      .cls-1 {
        fill: #28272c;
        fill-rule: evenodd;
      }
    </style>
  </defs>
  <path id="check_" data-name="check " class="cls-1" d="M24.5,49A24.5,24.5,0,1,1,49,24.5,24.5,24.5,0,0,1,24.5,49ZM38.181,15.917l-2.438-2.438a1.149,1.149,0,0,0-1.625,0L19.5,28.1l-6.953-7a1.149,1.149,0,0,0-1.625,0L8.485,23.53a1.148,1.148,0,0,0,0,1.625l7.732,7.788c0.01,0.011.014,0.026,0.024,0.037l1.673,1.672,0.4,0.406,0,0,0.36,0.361a1.149,1.149,0,0,0,1.625,0L38.181,17.542A1.149,1.149,0,0,0,38.181,15.917Z"/>
</svg>
