<svg xmlns="http://www.w3.org/2000/svg" width="47" height="51" viewBox="0 0 47 51">
  <metadata><?xpacket begin="﻿" id="W5M0MpCehiHzreSzNTczkc9d"?>
<x:xmpmeta xmlns:x="adobe:ns:meta/" x:xmptk="Adobe XMP Core 5.6-c138 79.159824, 2016/09/14-01:09:01        ">
   <rdf:RDF xmlns:rdf="http://www.w3.org/1999/02/22-rdf-syntax-ns#">
      <rdf:Description rdf:about=""/>
   </rdf:RDF>
</x:xmpmeta>
                                                                                                    
                                                                                                    
                                                                                                    
                                                                                                    
                                                                                                    
                                                                                                    
                                                                                                    
                                                                                                    
                                                                                                    
                                                                                                    
                                                                                                    
                                                                                                    
                                                                                                    
                                                                                                    
                                                                                                    
                                                                                                    
                                                                                                    
                                                                                                    
                                                                                                    
                                                                                                    
                           
<?xpacket end="w"?></metadata>
<defs>
    <style>
      .cls-1 {
        fill: #28272c;
        fill-rule: evenodd;
      }
    </style>
  </defs>
  <path id="dog_boarding" class="cls-1" d="M24.986,0.648a2,2,0,0,0-2.947,0L0.55,24.18a2,2,0,0,0,1.471,3.345H5.863L7.544,49.159A2,2,0,0,0,9.533,51H37.458a2,2,0,0,0,1.989-1.852l1.579-21.629H45a2,2,0,0,0,1.471-3.344Zm8.265,46.186a0.853,0.853,0,0,1-.855.855H14.612a0.854,0.854,0,0,1-.855-0.855V33.747a9.758,9.758,0,0,1,9.741-9.76H23.5a9.758,9.758,0,0,1,9.741,9.761V46.834h0.005Z"/>
</svg>
