<svg xmlns="http://www.w3.org/2000/svg" width="50" height="48" viewBox="0 0 50 48">
  <metadata><?xpacket begin="﻿" id="W5M0MpCehiHzreSzNTczkc9d"?>
<x:xmpmeta xmlns:x="adobe:ns:meta/" x:xmptk="Adobe XMP Core 5.6-c138 79.159824, 2016/09/14-01:09:01        ">
   <rdf:RDF xmlns:rdf="http://www.w3.org/1999/02/22-rdf-syntax-ns#">
      <rdf:Description rdf:about=""/>
   </rdf:RDF>
</x:xmpmeta>
                                                                                                    
                                                                                                    
                                                                                                    
                                                                                                    
                                                                                                    
                                                                                                    
                                                                                                    
                                                                                                    
                                                                                                    
                                                                                                    
                                                                                                    
                                                                                                    
                                                                                                    
                                                                                                    
                                                                                                    
                                                                                                    
                                                                                                    
                                                                                                    
                                                                                                    
                                                                                                    
                           
<?xpacket end="w"?></metadata>
<defs>
    <style>
      .cls-1 {
        fill: #28272c;
        fill-rule: evenodd;
      }
    </style>
  </defs>
  <path id="doggie_daycare" class="cls-1" d="M25.435,0c0.028,0.356.04,0.711,0.04,1.066A13.816,13.816,0,0,1,21.142,11.1L16.694,15.37a11.408,11.408,0,0,0,0,16.6,12.6,12.6,0,0,0,17.3,0L38.44,27.7A15.013,15.013,0,0,1,48.9,23.545c0.37,0,.734.011,1.1,0.038A23.444,23.444,0,0,0,42.677,7.026,25.474,25.474,0,0,0,25.435,0ZM40.251,29.441L35.8,33.708a15.235,15.235,0,0,1-20.92,0,13.792,13.792,0,0,1,0-20.075l4.447-4.268a11.421,11.421,0,0,0,3.581-8.3c0-.328-0.017-0.656-0.045-0.984A25.344,25.344,0,0,0,7.3,7.026a23.326,23.326,0,0,0,0,33.944,25.767,25.767,0,0,0,35.372,0,23.515,23.515,0,0,0,7.237-14.928C49.578,26.014,49.242,26,48.9,26A12.4,12.4,0,0,0,40.251,29.441Z"/>
</svg>
