<svg xmlns="http://www.w3.org/2000/svg" width="61" height="54" viewBox="0 0 61 54">
  <metadata><?xpacket begin="﻿" id="W5M0MpCehiHzreSzNTczkc9d"?>
<x:xmpmeta xmlns:x="adobe:ns:meta/" x:xmptk="Adobe XMP Core 5.6-c138 79.159824, 2016/09/14-01:09:01        ">
   <rdf:RDF xmlns:rdf="http://www.w3.org/1999/02/22-rdf-syntax-ns#">
      <rdf:Description rdf:about=""/>
   </rdf:RDF>
</x:xmpmeta>
                                                                                                    
                                                                                                    
                                                                                                    
                                                                                                    
                                                                                                    
                                                                                                    
                                                                                                    
                                                                                                    
                                                                                                    
                                                                                                    
                                                                                                    
                                                                                                    
                                                                                                    
                                                                                                    
                                                                                                    
                                                                                                    
                                                                                                    
                                                                                                    
                                                                                                    
                                                                                                    
                           
<?xpacket end="w"?></metadata>
<defs>
    <style>
      .cls-1 {
        fill: #28272c;
        fill-rule: evenodd;
      }
    </style>
  </defs>
  <path id="puppy_visits" class="cls-1" d="M10.582,23.463c0.51-6.818.994-12.767,6.5-13.434a15.7,15.7,0,0,1,2.408-3.05,15.4,15.4,0,0,1,3.146-2.4,10.1,10.1,0,0,0-5.038-3.214C12.862,0.2,4.691,1.024.735,16.8S9.958,31.844,10.582,23.463ZM43.4,1.358A10.085,10.085,0,0,0,38.346,4.6a15.479,15.479,0,0,1,5.49,5.419c5.586,0.617,6.07,6.591,6.579,13.441,0.624,8.381,13.8,9.118,9.847-6.667S48.135,0.2,43.4,1.358Zm-2.21,8.727a13.39,13.39,0,0,0-21.49-.019,12.986,12.986,0,0,0-2.573,7.77v7.833a15.606,15.606,0,0,0-5.395,11.721c0,8.86,7.8,16.1,17.624,16.61V37.036c-2.331-.322-4.076-1.632-4.076-3.2,0-1.809,2.325-3.277,5.191-3.277s5.191,1.468,5.191,3.277c0,1.569-1.745,2.879-4.076,3.2V54c9.821-.511,17.6-7.751,17.6-16.61a15.9,15.9,0,0,0-5.439-11.721V17.836A12.963,12.963,0,0,0,41.193,10.085ZM18.919,45.751a1.3,1.3,0,1,1,1.319-1.3A1.314,1.314,0,0,1,18.919,45.751Zm0.217-4.663a1.3,1.3,0,1,1,1.318-1.3A1.314,1.314,0,0,1,19.136,41.088Zm1.433-18.721a1.911,1.911,0,1,1,1.911,1.89A1.9,1.9,0,0,1,20.569,22.367ZM23.1,43.684a1.3,1.3,0,1,1,1.318-1.3A1.315,1.315,0,0,1,23.1,43.684Zm14.8,0a1.3,1.3,0,1,1,1.318-1.3A1.314,1.314,0,0,1,37.9,43.684Zm0.567-19.427a1.891,1.891,0,1,1,1.911-1.89A1.9,1.9,0,0,1,38.467,24.257Zm3.395,14.228a1.3,1.3,0,1,1-1.319,1.3A1.314,1.314,0,0,1,41.861,38.485Zm0.216,7.266a1.3,1.3,0,1,1,1.319-1.3A1.314,1.314,0,0,1,42.078,45.751Z"/>
</svg>
