<svg xmlns="http://www.w3.org/2000/svg" width="49" height="49" viewBox="0 0 49 49">
  <metadata><?xpacket begin="﻿" id="W5M0MpCehiHzreSzNTczkc9d"?>
<x:xmpmeta xmlns:x="adobe:ns:meta/" x:xmptk="Adobe XMP Core 5.6-c138 79.159824, 2016/09/14-01:09:01        ">
   <rdf:RDF xmlns:rdf="http://www.w3.org/1999/02/22-rdf-syntax-ns#">
      <rdf:Description rdf:about=""/>
   </rdf:RDF>
</x:xmpmeta>
                                                                                                    
                                                                                                    
                                                                                                    
                                                                                                    
                                                                                                    
                                                                                                    
                                                                                                    
                                                                                                    
                                                                                                    
                                                                                                    
                                                                                                    
                                                                                                    
                                                                                                    
                                                                                                    
                                                                                                    
                                                                                                    
                                                                                                    
                                                                                                    
                                                                                                    
                                                                                                    
                           
<?xpacket end="w"?></metadata>
<defs>
    <style>
      .cls-1 {
        fill: #28272c;
        fill-rule: evenodd;
      }
    </style>
  </defs>
  <path id="question" class="cls-1" d="M24.172,0A24.5,24.5,0,1,0,49,24.17,24.5,24.5,0,0,0,24.172,0ZM24.1,39.413l-0.135,0a3.566,3.566,0,0,1,.084-7.132l0.121,0A3.566,3.566,0,1,1,24.1,39.413Zm8.765-17.394a16.215,16.215,0,0,1-2.925,2.618l-1.5,1.032a4.057,4.057,0,0,0-1.5,1.829,3.782,3.782,0,0,0-.232,1.534l0,0.24H21l0.017-.484c0.07-1.985.119-3.153,0.942-4.119a24.279,24.279,0,0,1,4.26-3.427,4.5,4.5,0,0,0,1.008-1.031,3.632,3.632,0,0,0,.864-2.116,4.125,4.125,0,0,0-.783-2.437A3.264,3.264,0,0,0,24.483,14.6a3.079,3.079,0,0,0-2.854,1.32,5.3,5.3,0,0,0-.865,2.85V19.01H14.879l0.011-.254c0.152-3.6,1.438-6.2,3.823-7.716A10.069,10.069,0,0,1,24.25,9.587a11.953,11.953,0,0,1,7.144,2.056,7.132,7.132,0,0,1,2.89,6.155A7.045,7.045,0,0,1,32.865,22.019Z"/>
</svg>
