<?xml version="1.0" standalone="no"?>
<!DOCTYPE svg PUBLIC "-//W3C//DTD SVG 20010904//EN"
 "http://www.w3.org/TR/2001/REC-SVG-20010904/DTD/svg10.dtd">
<svg version="1.0" xmlns="http://www.w3.org/2000/svg"
 width="671.000000pt" height="671.000000pt" viewBox="0 0 671.000000 671.000000"
 preserveAspectRatio="xMidYMid meet">
<metadata>
Created by potrace 1.14, written by Peter Selinger 2001-2017
</metadata>
<g transform="translate(0.000000,671.000000) scale(0.100000,-0.100000)"
fill="#000000" stroke="none">
<path d="M3248 6223 c-16 -4 -18 -21 -18 -176 0 -95 -3 -203 -7 -240 l-6 -68
119 3 119 3 3 35 3 35 -77 -3 -76 -4 7 194 c3 106 9 201 11 211 4 14 -1 17
-28 16 -18 -1 -41 -3 -50 -6z"/>
<path d="M3760 6187 c0 -21 -63 -328 -80 -388 -11 -40 -20 -75 -20 -76 0 -6
82 -23 89 -19 4 3 11 27 15 53 14 105 28 173 35 168 4 -2 32 -63 62 -135 30
-71 59 -130 65 -130 17 0 84 29 84 37 0 3 -27 57 -60 119 l-60 113 101 77 101
76 -30 30 -30 30 -110 -91 c-61 -50 -112 -91 -115 -91 -3 0 8 48 24 107 16 59
28 108 26 109 -5 5 -97 16 -97 11z"/>
<path d="M2695 6163 c-27 -8 -51 -16 -52 -17 -1 -1 -9 -83 -17 -182 -9 -100
-20 -212 -25 -250 -6 -37 -9 -69 -8 -70 1 -2 21 0 45 3 l42 6 0 51 c0 88 3 91
86 110 41 9 79 16 84 16 5 0 23 -27 40 -60 17 -33 34 -60 39 -60 13 0 81 30
81 35 0 3 -37 69 -83 148 -46 78 -101 175 -123 214 -21 40 -43 72 -49 72 -5
-1 -32 -8 -60 -16z"/>
<path d="M2145 5998 c-11 -6 -21 -12 -23 -14 -2 -1 14 -62 36 -136 51 -166 74
-259 69 -265 -3 -2 -49 44 -103 103 -55 60 -117 128 -140 153 l-41 44 -37 -28
-37 -28 26 -27 c20 -20 36 -63 65 -176 41 -155 46 -178 32 -172 -9 3 -109 109
-218 232 l-62 68 -36 -28 -35 -29 107 -110 c59 -60 136 -140 170 -177 35 -38
67 -68 71 -68 4 0 23 12 42 26 19 14 39 29 46 32 10 6 9 19 -3 57 -8 28 -25
91 -39 140 l-24 90 103 -109 103 -109 49 33 c27 18 50 34 52 36 2 1 -7 35 -19
76 -12 40 -41 145 -64 233 -43 164 -50 176 -90 153z"/>
<path d="M4326 5879 c-27 -68 -69 -163 -93 -211 -23 -48 -43 -91 -43 -95 0 -8
81 -46 85 -40 1 1 15 36 30 77 15 41 59 142 98 223 38 81 67 150 65 152 -3 3
-25 8 -49 11 l-45 6 -48 -123z"/>
<path d="M4685 5701 c-44 -69 -103 -158 -132 -198 -29 -40 -53 -77 -53 -82 0
-6 47 -42 104 -80 l103 -70 21 29 c24 32 24 32 -63 90 -27 18 -52 34 -53 36
-6 4 67 114 76 114 4 0 30 -15 57 -34 l50 -34 27 25 27 26 -57 40 c-31 21 -58
41 -60 42 -4 4 68 105 74 105 3 0 32 -18 64 -40 32 -22 64 -40 69 -40 11 0 47
48 40 54 -2 2 -51 35 -109 73 l-106 70 -79 -126z"/>
<path d="M3090 5469 c-1226 -126 -2086 -1285 -1850 -2495 207 -1061 1193
-1799 2261 -1694 1243 123 2106 1277 1869 2496 -208 1068 -1199 1803 -2280
1693z m1370 -810 c28 -12 73 -49 118 -97 l72 -77 122 0 c150 0 147 4 144 -161
-4 -171 -26 -192 -215 -206 -63 -4 -120 -13 -127 -19 -7 -5 -43 -87 -79 -182
-37 -95 -83 -208 -102 -252 -23 -55 -39 -112 -49 -185 -39 -281 -58 -356 -112
-432 l-37 -53 1 -335 c0 -228 4 -344 12 -362 8 -19 30 -37 69 -55 51 -24 58
-32 61 -59 2 -25 -3 -36 -25 -52 -44 -30 -117 -49 -175 -44 -20 2 -36 50 -78
225 -44 186 -174 490 -233 545 -35 33 -141 42 -493 42 -160 0 -340 5 -400 12
-60 7 -147 12 -194 13 l-84 0 -63 -80 c-107 -136 -173 -204 -252 -262 -87 -63
-193 -164 -221 -209 -22 -35 -60 -148 -60 -180 0 -13 20 -40 50 -67 62 -57 65
-82 13 -104 -27 -11 -58 -14 -106 -10 -76 5 -117 27 -128 68 -4 13 -7 111 -8
217 l-1 194 114 117 c116 120 145 167 130 213 -6 20 -9 17 -32 -27 -47 -93
-212 -225 -281 -225 -33 0 -25 17 39 84 36 38 66 80 75 106 29 83 48 231 47
375 -1 197 23 285 110 412 39 58 125 141 168 163 104 52 326 72 790 68 302 -3
355 -1 425 15 104 24 212 75 271 129 84 77 219 303 288 483 67 175 105 224
198 256 73 25 180 25 238 -2z"/>
<path d="M1440 5310 c-14 -14 -20 -33 -20 -65 0 -41 -8 -57 -97 -180 -83 -114
-102 -135 -125 -135 -30 0 -78 -50 -78 -80 0 -33 30 -53 70 -47 34 4 36 3 32
-19 -7 -36 23 -74 58 -74 40 0 70 40 70 94 0 37 12 58 98 178 83 117 102 138
130 144 71 14 100 64 66 113 -14 20 -23 23 -60 18 -40 -4 -44 -3 -44 18 0 49
-63 72 -100 35z"/>
<path d="M5092 5317 c-6 -6 -13 -24 -17 -39 -6 -24 -10 -26 -41 -21 -38 6 -61
-8 -75 -45 -14 -36 12 -70 64 -84 38 -10 50 -22 141 -147 92 -125 100 -140
101 -183 1 -56 25 -88 65 -88 34 0 60 28 60 66 0 28 2 30 35 26 43 -5 65 11
65 50 0 37 -40 78 -77 79 -24 0 -41 18 -122 131 -88 122 -95 136 -96 181 -1
39 -6 54 -24 68 -27 22 -64 25 -79 6z"/>
<path d="M979 4606 c-33 -16 -46 -59 -31 -98 10 -29 6 -42 -59 -182 -60 -129
-75 -153 -102 -166 -43 -20 -64 -60 -51 -97 11 -31 48 -42 84 -23 17 9 20 8
20 -9 0 -11 10 -32 23 -47 19 -22 29 -26 50 -20 42 10 62 48 51 99 -9 40 -6
51 61 197 59 128 77 157 101 169 67 32 84 81 43 122 -20 20 -31 21 -84 4 -16
-5 -23 0 -31 23 -13 34 -42 45 -75 28z"/>
<path d="M5566 4588 c-9 -12 -16 -28 -16 -36 0 -9 -5 -10 -19 -2 -36 19 -79
12 -97 -16 -24 -36 -9 -73 42 -101 38 -21 47 -35 110 -170 63 -137 68 -152 65
-206 -3 -68 15 -97 60 -97 31 0 59 31 59 66 0 22 1 22 30 7 28 -13 33 -13 55
1 48 32 24 111 -40 130 -14 4 -41 50 -90 158 -39 84 -68 157 -66 163 2 5 6 26
9 47 7 66 -67 106 -102 56z"/>
<path d="M813 3780 c-12 -5 -26 -17 -31 -27 -10 -17 -12 -17 -34 5 -66 61
-134 -29 -77 -102 21 -27 21 -34 15 -189 -7 -155 -9 -163 -33 -189 -63 -66 -4
-172 64 -114 l27 23 24 -28 c30 -37 64 -37 92 -2 24 31 21 60 -11 105 -19 26
-20 38 -13 195 7 166 7 168 35 201 40 45 42 85 7 115 -22 19 -33 20 -65 7z"/>
<path d="M5730 3770 c-28 -28 -25 -64 9 -102 29 -33 29 -35 38 -205 8 -169 8
-172 -14 -205 -41 -59 -20 -128 39 -128 19 0 52 28 60 51 3 9 11 6 27 -10 29
-29 70 -25 90 10 18 32 9 73 -23 102 -22 21 -23 32 -30 186 -6 160 -6 165 16
188 25 27 30 82 9 107 -18 22 -64 20 -86 -4 -18 -19 -18 -19 -47 5 -36 30 -61
32 -88 5z"/>
<path d="M815 2945 c-14 -13 -25 -31 -25 -40 0 -14 -3 -14 -30 0 -83 43 -126
-69 -45 -116 28 -17 37 -32 58 -102 66 -213 72 -237 59 -257 -25 -40 -10 -99
29 -120 28 -16 55 -4 69 31 12 28 14 29 31 13 26 -23 76 -22 94 2 25 34 18 64
-26 105 -37 34 -44 49 -90 199 -46 152 -48 163 -34 190 26 51 19 87 -22 109
-31 16 -41 14 -68 -14z"/>
<path d="M5715 2945 c-29 -28 -31 -45 -8 -92 15 -33 15 -38 -5 -102 -11 -36
-34 -111 -51 -166 -26 -84 -35 -103 -59 -117 -16 -10 -35 -31 -42 -48 -10 -25
-10 -34 4 -54 23 -36 53 -42 87 -17 l29 22 10 -25 c14 -38 46 -51 76 -31 37
24 47 59 29 102 -15 35 -14 42 32 195 40 137 51 161 72 171 56 27 66 106 16
129 -19 9 -29 7 -49 -6 -32 -21 -36 -20 -36 3 0 21 -44 61 -67 61 -8 0 -25
-11 -38 -25z"/>
<path d="M1105 2196 c-11 -8 -19 -26 -19 -47 -1 -33 -3 -34 -34 -31 -37 5 -72
-20 -72 -50 0 -27 54 -78 82 -78 19 0 42 -27 119 -137 86 -124 95 -142 92
-174 -10 -78 91 -129 116 -58 6 17 8 35 5 40 -7 11 -4 11 35 -2 46 -16 81 9
81 56 0 29 -6 39 -32 55 -18 11 -41 20 -50 20 -10 0 -56 54 -118 141 -96 136
-100 144 -100 194 0 38 -5 56 -18 68 -22 21 -62 22 -87 3z"/>
<path d="M5419 2189 c-17 -17 -20 -30 -16 -66 5 -44 2 -49 -85 -172 -111 -155
-112 -157 -148 -165 -64 -12 -90 -76 -49 -117 20 -20 41 -21 82 -4 14 6 17 2
17 -23 0 -42 31 -64 71 -50 37 13 49 35 49 90 1 38 11 58 93 173 81 113 97
130 127 136 91 19 94 137 3 127 -30 -4 -33 -2 -33 22 0 64 -67 93 -111 49z"/>
<path d="M1613 1600 c-25 -10 -38 -48 -29 -85 5 -21 3 -25 -17 -25 -29 0 -57
-29 -57 -58 0 -24 32 -62 53 -63 6 0 28 -1 47 -2 50 -3 290 -189 290 -225 0
-28 51 -82 77 -82 37 0 56 24 51 63 -4 36 -3 37 28 37 18 0 40 7 48 16 20 20
21 68 1 88 -16 16 -71 30 -96 24 -8 -1 -75 44 -151 101 -119 90 -137 108 -143
138 -7 37 -45 83 -67 82 -7 0 -23 -4 -35 -9z"/>
<path d="M4943 1597 c-23 -10 -43 -46 -43 -80 -1 -15 -21 -37 -68 -72 -37 -27
-98 -74 -137 -104 -38 -30 -81 -56 -95 -57 -14 -1 -35 -2 -47 -3 -13 0 -32
-10 -43 -21 -41 -41 -13 -100 48 -100 30 0 31 -1 25 -35 -7 -43 9 -65 49 -65
37 0 78 40 78 77 1 24 20 43 136 131 122 93 138 102 167 97 24 -5 39 -1 59 14
49 39 42 96 -14 106 -31 6 -34 9 -30 40 7 60 -34 95 -85 72z"/>
<path d="M2380 1017 c-7 -83 -18 -194 -25 -245 -6 -51 -9 -95 -6 -96 5 -4 112
-36 117 -36 1 0 32 47 68 104 36 57 72 109 80 115 15 13 14 -5 -9 -177 -9 -68
-9 -95 -1 -98 51 -18 112 -32 117 -26 3 4 35 50 69 102 35 52 94 139 132 192
37 53 68 101 68 106 0 9 -43 32 -59 32 -4 0 -58 -76 -120 -170 -62 -93 -116
-170 -121 -170 -9 0 -8 11 25 250 13 91 22 166 22 166 -1 1 -22 4 -47 5 -44 4
-45 4 -50 -32 -6 -35 -182 -299 -199 -299 -5 0 -7 10 -5 23 17 124 47 388 43
390 -2 3 -22 7 -45 10 l-40 7 -14 -153z"/>
<path d="M4125 1157 c-2 -6 -18 -66 -36 -132 -18 -66 -36 -124 -39 -128 -4 -5
-18 20 -30 55 -13 35 -32 82 -42 106 l-18 43 -40 -27 c-22 -15 -40 -27 -40
-28 0 -1 28 -65 63 -142 35 -76 76 -174 92 -216 15 -43 31 -78 35 -78 11 0 80
30 80 34 0 3 -20 48 -45 102 -25 54 -44 101 -43 104 2 4 59 -28 127 -71 l125
-77 28 36 c15 20 28 40 28 44 0 4 -53 34 -119 68 l-118 62 38 116 c21 64 35
120 31 123 -15 14 -73 19 -77 6z"/>
<path d="M3583 985 l-31 -13 30 -139 c16 -76 36 -180 43 -231 7 -52 15 -95 17
-96 1 -1 54 7 116 18 l113 21 -6 35 c-4 19 -8 36 -10 38 -2 2 -31 -4 -65 -14
-36 -10 -65 -13 -70 -8 -11 11 -33 123 -56 282 -19 133 -19 134 -81 107z"/>
<path d="M3203 973 c-23 -5 -25 -7 -87 -183 -24 -69 -58 -161 -76 -204 -36
-86 -33 -99 24 -94 27 3 32 9 50 66 l20 62 87 0 88 0 16 -72 16 -73 50 3 c41
3 49 7 45 20 -13 42 -87 316 -107 395 l-21 87 -42 -1 c-22 -1 -51 -4 -63 -6z"/>
</g>
</svg>
